# Alias OBJ Model File
# Exported from SketchUp, (c) 2000-2012 Trimble Navigation Limited
# File units = inches

mtllib 6.mtl

g Mesh1 Model

usemtl FrontColor
v -928.577 270.125 259.727
vt 928.577 270.125
vn 0 0 -1
v -928.39 -3.1477e-014 259.727
vt 928.39 -3.1477e-014
v -928.577 -3.1477e-014 259.727
vt 928.577 -3.1477e-014
f 1/1/1 2/2/1 3/3/1

v -928.39 270.125 259.727
vt 928.39 270.125
f 2/2/1 1/1/1 4/4/1

usemtl BackColor
vn -0 -0 1
f 3/3/2 2/2/2 1/1/2

usemtl FrontColor
vt 928.39 -259.727
vn 0 -1 -0
v -928.577 -3.1477e-014 1141.29
vt 928.577 -1141.29
vt 928.577 -259.727
f 2/5/3 5/6/3 3/7/3

v -928.39 -3.1477e-014 1141.29
vt 928.39 -1141.29
f 5/6/3 2/5/3 6/8/3

usemtl Grass_Dark_Green
vt 25.7759 -6.54431
vn -0 1 0
vt 25.7759 -28.7569
vt 25.7707 -6.54431
f 3/9/4 5/10/4 2/11/4

vn 5.38402e-018 -1 1.20482e-016
v -2909.84 1.95897e-013 2257.06
vt 80.7728 -56.8709
f 5/10/5 7/12/5 3/9/5

v -852.951 1.95897e-013 1979.94
vt 23.6767 -49.8882
f 8/13/5 7/12/5 5/10/5

v 3224.35 1.95897e-013 2257.06
vt -89.5032 -56.8709
f 7/12/5 8/13/5 9/14/5

vn -5.38402e-018 1 -1.20482e-016
f 9/14/6 8/13/6 7/12/6

v 54.4241 1.95897e-013 1979.94
vt -1.51073 -49.8882
f 9/14/5 8/13/5 10/15/5

f 10/15/6 8/13/6 9/14/6

vn 1.06195e-017 -1 6.31797e-017
v -584.243 -3.1477e-014 1396.5
vt 16.2177 -35.1874
f 8/13/7 11/16/7 10/15/7

v -837.18 -3.1477e-014 1141.29
vt 23.2389 -28.7569
f 8/13/7 12/17/7 11/16/7

v -852.951 -3.1477e-014 1141.29
vt 23.6767 -28.7569
f 12/17/7 8/13/7 13/18/7

usemtl Asphalt_New
vt 71.0792 -95.1075
vn -1.06195e-017 1 -6.31797e-017
vt 71.0792 -164.995
vt 69.765 -95.1075
f 13/19/8 8/20/8 12/21/8

usemtl Grass_Dark_Green
vt 25.7707 -28.7569
f 8/13/5 6/22/5 13/18/5

f 8/13/5 5/10/5 6/22/5

f 5/10/6 7/12/6 8/13/6

f 3/9/6 7/12/6 5/10/6

v -840.465 -8.18607e-014 -0
vt 23.3301 2.34772e-031
f 7/12/5 14/23/5 3/9/5

v -2909.84 -8.18607e-014 -0
vt 80.7728 2.00949e-031
f 14/23/5 7/12/5 15/24/5

f 15/24/6 7/12/6 14/23/6

f 3/9/6 14/23/6 7/12/6

f 3/9/5 14/23/5 2/11/5

f 2/11/6 14/23/6 3/9/6

v -841.556 -3.1477e-014 259.727
vt 23.3604 -6.54431
f 2/11/5 14/23/5 16/25/5

f 16/25/6 14/23/6 2/11/6

v -840.465 -3.25957e-014 259.727
vt 23.3301 -6.54431
f 16/25/5 14/23/5 17/26/5

f 17/26/6 14/23/6 16/25/6

vt 23.3301 1.16108e-031
v -229.938 -8.18607e-014 -442.411
vt 6.38273 11.1474
f 14/27/7 18/28/7 17/26/7

vt 80.7728 8.11244e-032
f 15/29/7 18/28/7 14/27/7

v -2909.84 1.95897e-013 -442.411
vt 80.7728 11.1474
f 18/28/7 15/29/7 19/30/7

usemtl Asphalt_New
vt 242.486 36.8676
vt 242.486 2.68302e-031
vt 19.1615 36.8676
f 19/31/8 15/32/8 18/33/8

vt 70.0388 3.84003e-031
f 14/34/8 18/33/8 15/32/8

vt 70.0388 -21.6439
f 17/35/8 18/33/8 14/34/8

usemtl Grass_Dark_Green
v -588.618 -3.1477e-014 -0
vt 16.3392 4.01582e-032
f 17/26/7 18/28/7 20/36/7

usemtl Asphalt_New
vt 49.0515 1.32815e-031
f 20/37/8 18/33/8 17/35/8

usemtl Grass_Dark_Green
v -229.938 -8.18607e-014 -0
vt 6.38273 1.26429e-031
f 20/36/7 18/28/7 21/38/7

usemtl Asphalt_New
vt 19.1615 4.18139e-031
f 21/39/8 18/33/8 20/37/8

usemtl Grass_Dark_Green
v -229.938 -8.3536e-014 -439.317
vt 6.38273 11.0694
f 21/38/7 18/28/7 22/40/7

usemtl Asphalt_New
vt 19.1615 36.6097
f 22/41/8 18/33/8 21/39/8

usemtl Grass_Dark_Green
vn 2.87729e-018 -1 -8.7673e-017
v 3224.35 1.95897e-013 -2023.5
vt -89.5032 50.9858
f 18/28/9 23/42/9 22/40/9

f 19/30/9 23/42/9 18/28/9

v -2909.84 1.95897e-013 -2023.5
vt 80.7728 50.9858
f 23/42/9 19/30/9 24/43/9

vn -2.87729e-018 1 8.7673e-017
f 24/43/10 19/30/10 23/42/10

f 18/28/10 23/42/10 19/30/10

f 22/40/10 23/42/10 18/28/10

v 3224.35 1.95897e-013 -439.317
vt -89.5032 11.0694
f 22/40/9 23/42/9 25/44/9

f 25/44/10 23/42/10 22/40/10

f 21/38/7 22/40/7 25/44/7

usemtl Asphalt_New
vt -268.696 36.6097
f 25/45/8 22/41/8 21/39/8

usemtl Grass_Dark_Green
v 0 0 -0
vt 0 0
f 21/38/7 25/44/7 26/46/7

usemtl Asphalt_New
f 26/46/8 25/45/8 21/39/8

usemtl Grass_Dark_Green
v 3224.35 -8.18607e-014 -0
vt -89.5032 1.84826e-031
f 26/46/7 25/44/7 27/47/7

usemtl Asphalt_New
vt -268.696 6.11272e-031
f 27/48/8 25/45/8 26/46/8

usemtl Grass_Dark_Green
vt -89.5032 3.0121e-031
v 0 1.76521e-013 1396.5
vt -2.63815e-032 -35.1874
f 27/49/5 28/50/5 26/46/5

v 54.4241 1.95897e-013 1396.5
vt -1.51073 -35.1874
f 28/50/5 27/49/5 29/51/5

f 26/46/6 28/50/6 27/49/6

vt -5.2035e-032 -35.1874
v -229.938 9.46603e-014 1396.5
vt 6.38273 -35.1874
f 28/52/7 30/53/7 26/46/7

f 10/15/7 30/53/7 28/52/7

f 10/15/7 11/16/7 30/53/7

usemtl Asphalt_New
vt -4.53534 -164.995
vt 48.6869 -116.375
f 10/54/8 11/55/8 8/20/8

vt 19.1615 -116.375
f 30/56/8 11/55/8 10/54/8

usemtl Grass_Dark_Green
vn 1.0768e-016 -1 4.4988e-017
v -499.702 -3.1477e-014 1141.29
vt 13.871 -28.7569
f 11/16/11 31/57/11 30/53/11

v -584.243 -3.1477e-014 1141.29
vt 16.2177 -28.7569
f 31/57/11 11/16/11 32/58/11

vn -1.0768e-016 1 -4.4988e-017
f 32/58/12 11/16/12 31/57/12

f 11/16/7 12/17/7 32/58/7

usemtl Asphalt_New
f 11/55/8 12/21/8 8/20/8

vt 48.6869 -95.1075
f 32/59/8 12/21/8 11/55/8

usemtl Grass_Dark_Green
vn 4.07901e-019 -1 2.54165e-019
v -588.618 -3.1477e-014 259.727
vt 16.3392 -6.54431
f 12/17/13 33/60/13 32/58/13

f 12/17/13 17/26/13 33/60/13

f 12/17/13 16/25/13 17/26/13

f 13/18/13 16/25/13 12/17/13

f 6/22/13 16/25/13 13/18/13

f 16/25/13 6/22/13 2/11/13

usemtl Polished_Concrete_Old
vt 25.7886 -7.21464
vn -4.07901e-019 1 -2.54165e-019
vt 25.7886 -31.7025
vt 23.3766 -7.21464
f 2/61/14 6/62/14 16/63/14

usemtl Metal_Seamed
vt 63.405 -1.74872e-015
vn -1 0 -0
v -928.39 90.8122 1100.38
vt 61.1321 5.04512
vt 14.4293 -1.74872e-015
f 6/64/15 34/65/15 2/66/15

v -928.39 169.187 1100.38
vt 61.1321 9.39929
f 34/65/15 6/64/15 35/67/15

vn 1 -0 0
f 2/66/16 34/65/16 6/64/16

v -928.39 90.8122 990.379
vt 55.021 5.04512
f 2/66/15 34/65/15 36/68/15

f 36/68/16 34/65/16 2/66/16

v -928.39 90.8122 950.824
vt 52.8235 5.04512
f 2/66/15 36/68/15 37/69/15

f 37/69/16 36/68/16 2/66/16

v -928.39 169.187 950.824
vt 52.8235 9.39929
f 37/69/15 36/68/15 38/70/15

f 38/70/16 36/68/16 37/69/16

v -928.39 169.187 990.379
vt 55.021 9.39929
f 39/71/15 38/70/15 36/68/15

vt 14.4293 15.0069
f 39/71/15 4/72/15 38/70/15

f 35/67/15 4/72/15 39/71/15

v -928.39 270.125 1141.29
vt 63.405 15.0069
f 35/67/15 40/73/15 4/72/15

f 40/73/15 35/67/15 6/64/15

f 6/64/16 35/67/16 40/73/16

f 35/67/16 6/64/16 34/65/16

f 4/72/16 40/73/16 35/67/16

usemtl Roofing_Metal_Standing_Seam_Red
v -499.702 270.125 1141.29
vt -20.8209 -47.5537
vn 0 1 -0
vt -38.6829 -10.822
vt -38.6829 -47.5537
f 41/74/17 4/75/17 40/76/17

v -499.702 270.125 259.727
vt -20.8209 -10.822
f 4/75/17 41/74/17 42/77/17

vn -0 -1 0
f 40/76/18 4/75/18 41/74/18

usemtl FrontColor
vt -928.577 -259.727
vt -928.39 -1141.29
vt -928.39 -259.727
f 1/78/17 40/79/17 4/80/17

v -928.577 270.125 1141.29
vt -928.577 -1141.29
f 40/79/17 1/78/17 43/81/17

usemtl BackColor
f 43/81/18 1/78/18 40/79/18

f 4/80/18 40/79/18 1/78/18

f 4/4/2 1/1/2 2/2/2

usemtl Metal_Seamed
v -928.39 90.8122 304.846
vt 16.9359 5.04512
f 2/66/15 44/82/15 4/72/15

v -928.39 90.8122 414.846
vt 23.047 5.04512
f 2/66/15 45/83/15 44/82/15

v -928.39 90.8122 457.348
vt 25.4082 5.04512
f 2/66/15 46/84/15 45/83/15

v -928.39 90.8122 567.348
vt 31.5193 5.04512
f 2/66/15 47/85/15 46/84/15

v -928.39 90.8122 606.903
vt 33.7168 5.04512
f 2/66/15 48/86/15 47/85/15

v -928.39 90.8122 798.322
vt 44.3512 5.04512
f 2/66/15 49/87/15 48/86/15

v -928.39 90.8122 840.824
vt 46.7124 5.04512
f 2/66/15 50/88/15 49/87/15

f 2/66/15 37/69/15 50/88/15

f 50/88/16 37/69/16 2/66/16

f 49/87/16 50/88/16 2/66/16

v -928.39 169.187 798.322
vt 44.3512 9.39929
f 49/87/15 50/88/15 51/89/15

f 51/89/16 50/88/16 49/87/16

v -928.39 169.187 840.824
vt 46.7124 9.39929
f 52/90/15 51/89/15 50/88/15

f 52/90/15 4/72/15 51/89/15

f 38/70/15 4/72/15 52/90/15

f 38/70/16 4/72/16 39/71/16

f 52/90/16 4/72/16 38/70/16

f 51/89/16 4/72/16 52/90/16

v -928.39 169.187 606.903
vt 33.7168 9.39929
f 51/89/15 4/72/15 53/91/15

f 53/91/16 4/72/16 51/89/16

v -928.39 169.187 567.348
vt 31.5193 9.39929
f 53/91/15 4/72/15 54/92/15

f 54/92/16 4/72/16 53/91/16

v -928.39 169.187 457.348
vt 25.4082 9.39929
f 54/92/15 4/72/15 55/93/15

f 55/93/16 4/72/16 54/92/16

v -928.39 169.187 414.846
vt 23.047 9.39929
f 55/93/15 4/72/15 56/94/15

f 56/94/16 4/72/16 55/93/16

v -928.39 169.187 304.846
vt 16.9359 9.39929
f 56/94/15 4/72/15 57/95/15

f 57/95/16 4/72/16 56/94/16

f 57/95/15 4/72/15 44/82/15

f 44/82/16 4/72/16 57/95/16

f 4/72/16 44/82/16 2/66/16

f 44/82/16 45/83/16 2/66/16

f 45/83/16 46/84/16 2/66/16

f 45/83/15 46/84/15 56/94/15

f 56/94/16 46/84/16 45/83/16

f 55/93/15 56/94/15 46/84/15

f 46/84/16 56/94/16 55/93/16

f 46/84/16 47/85/16 2/66/16

f 47/85/16 48/86/16 2/66/16

f 47/85/15 48/86/15 54/92/15

f 54/92/16 48/86/16 47/85/16

f 53/91/15 54/92/15 48/86/15

f 48/86/16 54/92/16 53/91/16

f 48/86/16 49/87/16 2/66/16

vt 51.5772 15.0069
vt 46.7531 -1.74872e-015
vt 51.5772 -1.74872e-015
f 4/96/1 16/97/1 2/98/1

v -841.556 169.25 259.727
vt 46.7531 9.40278
f 16/97/1 4/96/1 58/99/1

f 2/98/2 16/97/2 4/96/2

f 58/99/2 4/96/2 16/97/2

v -588.618 169.25 259.727
vt 32.701 9.40278
f 58/99/1 4/96/1 59/100/1

f 59/100/2 4/96/2 58/99/2

vt 27.7612 15.0069
f 42/101/1 59/100/1 4/96/1

v -499.702 -3.1477e-014 259.727
vt 27.7612 -1.74872e-015
f 60/102/1 59/100/1 42/101/1

vt 32.701 -1.74872e-015
f 59/100/1 60/102/1 33/103/1

f 33/103/2 60/102/2 59/100/2

usemtl Grass_Dark_Green
vt 6.38273 6.47272e-032
vt 13.871 -6.54431
f 33/60/11 21/104/11 60/105/11

vt 16.3392 -3.61667e-032
f 21/104/11 33/60/11 20/106/11

f 20/106/12 33/60/12 21/104/12

f 33/60/7 17/26/7 20/36/7

usemtl Asphalt_New
vt 49.0515 -21.6439
f 20/37/8 17/35/8 33/107/8

usemtl Polished_Concrete_Old
vt 16.3505 -7.21464
vt 23.3463 -7.21464
vt 23.255 -31.7025
f 33/108/14 17/109/14 12/110/14

f 17/109/14 16/63/14 12/110/14

vt 23.6931 -31.7025
f 12/110/14 16/63/14 13/111/14

f 13/111/14 16/63/14 6/62/14

usemtl Metal_Seamed
vt -47.3862 -1.74872e-015
vn 0 0 1
v -837.18 169.25 1141.29
vt -46.51 9.40278
vt -51.5772 -1.74872e-015
f 13/112/19 61/113/19 6/114/19

vt -46.51 -1.74872e-015
f 61/113/19 13/112/19 12/115/19

vn -0 -0 -1
f 12/115/20 13/112/20 61/113/20

f 6/114/20 61/113/20 13/112/20

vt -51.5772 15.0069
f 6/114/19 61/113/19 40/116/19

f 40/116/20 61/113/20 6/114/20

vt -27.7612 15.0069
f 40/116/19 61/113/19 41/117/19

f 41/117/20 61/113/20 40/116/20

v -584.243 169.25 1141.29
vt -32.4579 9.40278
f 62/118/19 41/117/19 61/113/19

vt -32.4579 -1.74872e-015
f 32/119/19 41/117/19 62/118/19

vt -27.7612 -1.74872e-015
f 41/117/19 32/119/19 31/120/19

f 31/120/20 32/119/20 41/117/20

usemtl Grass_Dark_Green
f 32/58/13 60/105/13 31/57/13

f 32/58/13 33/60/13 60/105/13

usemtl Polished_Concrete_Old
vt 16.229 -31.7025
f 32/121/14 33/108/14 12/110/14

vt 13.8806 -7.21464
f 60/122/14 33/108/14 32/121/14

usemtl Grass_Dark_Green
f 60/105/12 21/104/12 33/60/12

f 60/105/11 21/104/11 31/57/11

f 31/57/12 21/104/12 60/105/12

f 30/53/11 31/57/11 21/104/11

f 30/53/12 31/57/12 11/16/12

f 21/104/12 31/57/12 30/53/12

f 21/38/7 26/46/7 30/53/7

usemtl Asphalt_New
f 30/56/8 26/46/8 21/39/8

vt -1.56213e-031 -116.375
f 26/46/8 30/56/8 28/123/8

f 28/123/8 30/56/8 10/54/8

usemtl Grass_Dark_Green
f 10/15/7 28/52/7 29/51/7

usemtl Asphalt_New
vt -4.53534 -116.375
f 29/124/8 28/123/8 10/54/8

usemtl Grass_Dark_Green
f 29/51/6 27/49/6 28/50/6

f 29/51/5 27/49/5 10/15/5

f 10/15/6 27/49/6 29/51/6

f 9/14/5 10/15/5 27/49/5

f 27/49/6 10/15/6 9/14/6

usemtl Metal_Seamed
v -499.702 90.8122 1100.38
vt -61.1321 5.04512
vn 1 0 -0
vt -63.405 -1.74872e-015
vt -14.4293 -1.74872e-015
f 63/125/21 31/126/21 60/127/21

vt -63.405 15.0069
f 31/126/21 63/125/21 41/128/21

vn -1 -0 0
f 41/128/22 63/125/22 31/126/22

v -499.702 169.187 1100.38
vt -61.1321 9.39929
f 64/129/21 41/128/21 63/125/21

vt -14.4293 15.0069
f 41/128/21 64/129/21 42/130/21

f 42/130/22 64/129/22 41/128/22

v -499.702 169.187 990.379
vt -55.021 9.39929
f 42/130/21 64/129/21 65/131/21

f 65/131/22 64/129/22 42/130/22

v -499.702 169.187 950.824
vt -52.8235 9.39929
f 42/130/21 65/131/21 66/132/21

f 66/132/22 65/131/22 42/130/22

v -499.702 90.8122 950.824
vt -52.8235 5.04512
f 66/132/21 65/131/21 67/133/21

f 67/133/22 65/131/22 66/132/22

v -499.702 90.8122 990.379
vt -55.021 5.04512
f 68/134/21 67/133/21 65/131/21

f 68/134/21 60/127/21 67/133/21

f 63/125/21 60/127/21 68/134/21

f 60/127/22 31/126/22 63/125/22

usemtl Polished_Concrete_Old
vt 13.8806 -31.7025
f 31/135/14 60/122/14 32/121/14

usemtl Metal_Seamed
f 68/134/22 60/127/22 63/125/22

f 67/133/22 60/127/22 68/134/22

v -499.702 90.8122 840.824
vt -46.7124 5.04512
f 67/133/21 60/127/21 69/136/21

f 69/136/22 60/127/22 67/133/22

v -499.702 90.8122 798.322
vt -44.3512 5.04512
f 69/136/21 60/127/21 70/137/21

f 70/137/22 60/127/22 69/136/22

v -499.702 90.8122 606.903
vt -33.7168 5.04512
f 70/137/21 60/127/21 71/138/21

f 71/138/22 60/127/22 70/137/22

v -499.702 90.8122 567.348
vt -31.5193 5.04512
f 71/138/21 60/127/21 72/139/21

f 72/139/22 60/127/22 71/138/22

v -499.702 90.8122 457.348
vt -25.4082 5.04512
f 72/139/21 60/127/21 73/140/21

f 73/140/22 60/127/22 72/139/22

v -499.702 90.8122 414.846
vt -23.047 5.04512
f 73/140/21 60/127/21 74/141/21

f 74/141/22 60/127/22 73/140/22

v -499.702 90.8122 304.846
vt -16.9359 5.04512
f 74/141/21 60/127/21 75/142/21

f 75/142/22 60/127/22 74/141/22

v -499.702 169.187 304.846
vt -16.9359 9.39929
f 75/142/21 60/127/21 76/143/21

f 76/143/22 60/127/22 75/142/22

f 42/130/21 76/143/21 60/127/21

v -499.702 169.187 414.846
vt -23.047 9.39929
f 42/130/21 77/144/21 76/143/21

v -499.702 169.187 457.348
vt -25.4082 9.39929
f 42/130/21 78/145/21 77/144/21

v -499.702 169.187 567.348
vt -31.5193 9.39929
f 42/130/21 79/146/21 78/145/21

v -499.702 169.187 606.903
vt -33.7168 9.39929
f 42/130/21 80/147/21 79/146/21

v -499.702 169.187 798.322
vt -44.3512 9.39929
f 42/130/21 81/148/21 80/147/21

v -499.702 169.187 840.824
vt -46.7124 9.39929
f 42/130/21 82/149/21 81/148/21

f 42/130/21 66/132/21 82/149/21

f 82/149/22 66/132/22 42/130/22

f 81/148/22 82/149/22 42/130/22

f 81/148/21 82/149/21 70/137/21

f 70/137/22 82/149/22 81/148/22

f 69/136/21 70/137/21 82/149/21

f 82/149/22 70/137/22 69/136/22

f 80/147/22 81/148/22 42/130/22

f 79/146/22 80/147/22 42/130/22

f 79/146/21 80/147/21 72/139/21

f 72/139/22 80/147/22 79/146/22

f 71/138/21 72/139/21 80/147/21

f 80/147/22 72/139/22 71/138/22

f 78/145/22 79/146/22 42/130/22

f 77/144/22 78/145/22 42/130/22

f 77/144/21 78/145/21 74/141/21

f 74/141/22 78/145/22 77/144/22

f 73/140/21 74/141/21 78/145/21

f 78/145/22 74/141/22 73/140/22

f 76/143/22 77/144/22 42/130/22

f 60/127/22 76/143/22 42/130/22

f 42/101/2 59/100/2 60/102/2

f 4/96/2 59/100/2 42/101/2

usemtl Roofing_Metal_Standing_Seam_Red
f 42/77/18 41/74/18 4/75/18

usemtl Metal_Seamed
f 65/131/22 67/133/22 68/134/22

f 63/125/22 41/128/22 64/129/22

f 62/118/20 41/117/20 32/119/20

f 61/113/20 41/117/20 62/118/20

usemtl Grass_Dark_Green
f 13/18/6 6/22/6 8/13/6

f 6/22/6 5/10/6 8/13/6

f 6/22/4 2/11/4 5/10/4

usemtl Metal_Seamed
f 50/88/16 51/89/16 52/90/16

f 39/71/16 4/72/16 35/67/16

f 36/68/16 38/70/16 39/71/16

