# Alias OBJ Model File
# Exported from SketchUp, (c) 2000-2012 Trimble Navigation Limited
# File units = inches

mtllib 7.mtl

g Mesh1 Model

usemtl FrontColor
v -928.577 270.125 259.727
vt 928.577 270.125
vn 0 0 -1
v -928.39 -3.1477e-014 259.727
vt 928.39 -3.1477e-014
v -928.577 -3.1477e-014 259.727
vt 928.577 -3.1477e-014
f 1/1/1 2/2/1 3/3/1

v -928.39 270.125 259.727
vt 928.39 270.125
f 2/2/1 1/1/1 4/4/1

usemtl BackColor
vn -0 -0 1
f 3/3/2 2/2/2 1/1/2

usemtl FrontColor
vt 928.39 -259.727
vn 0 -1 -0
v -928.577 -3.1477e-014 1141.29
vt 928.577 -1141.29
vt 928.577 -259.727
f 2/5/3 5/6/3 3/7/3

v -928.39 -3.1477e-014 1141.29
vt 928.39 -1141.29
f 5/6/3 2/5/3 6/8/3

usemtl Grass_Dark_Green
vt 25.7759 -6.54431
vn -0 1 0
vt 25.7759 -28.7569
vt 25.7707 -6.54431
f 3/9/4 5/10/4 2/11/4

usemtl _1
vn 5.38402e-018 -1 1.20482e-016
v -2909.84 1.95897e-013 2257.06
vt 2909.84 -2257.06
f 5/6/5 7/12/5 3/7/5

v -852.951 1.95897e-013 1979.94
vt 852.951 -1979.94
f 8/13/5 7/12/5 5/6/5

v 3224.35 1.95897e-013 2257.06
vt -3224.35 -2257.06
f 7/12/5 8/13/5 9/14/5

vn -5.38402e-018 1 -1.20482e-016
f 9/14/6 8/13/6 7/12/6

v 54.4241 1.95897e-013 1979.94
vt -54.4241 -1979.94
f 9/14/5 8/13/5 10/15/5

f 10/15/6 8/13/6 9/14/6

vn 1.06195e-017 -1 6.31797e-017
v -584.243 -3.1477e-014 1396.5
vt 584.243 -1396.5
f 8/13/7 11/16/7 10/15/7

v -837.18 -3.1477e-014 1141.29
vt 837.18 -1141.29
f 8/13/7 12/17/7 11/16/7

v -852.951 -3.1477e-014 1141.29
vt 852.951 -1141.29
f 12/17/7 8/13/7 13/18/7

usemtl _2
vn -1.06195e-017 1 -6.31797e-017
f 13/18/8 8/13/8 12/17/8

usemtl _1
f 8/13/5 6/8/5 13/18/5

f 8/13/5 5/6/5 6/8/5

f 5/6/6 7/12/6 8/13/6

f 3/7/6 7/12/6 5/6/6

v -840.465 -8.18607e-014 -0
vt 840.465 9.31752e-030
f 7/12/5 14/19/5 3/7/5

v -2909.84 -8.18607e-014 -0
vt 2909.84 7.97517e-030
f 14/19/5 7/12/5 15/20/5

f 15/20/6 7/12/6 14/19/6

f 3/7/6 14/19/6 7/12/6

f 3/7/5 14/19/5 2/5/5

f 2/5/6 14/19/6 3/7/6

v -841.556 -3.1477e-014 259.727
vt 841.556 -259.727
f 2/5/5 14/19/5 16/21/5

f 16/21/6 14/19/6 2/5/6

v -840.465 -3.25957e-014 259.727
vt 840.465 -259.727
f 16/21/5 14/19/5 17/22/5

f 17/22/6 14/19/6 16/21/6

vt 840.465 4.60804e-030
v -229.938 -8.18607e-014 -442.411
vt 229.938 442.411
f 14/23/7 18/24/7 17/22/7

vt 2909.84 3.21963e-030
f 15/25/7 18/24/7 14/23/7

v -2909.84 1.95897e-013 -442.411
vt 2909.84 442.411
f 18/24/7 15/25/7 19/26/7

usemtl _2
f 19/26/8 15/25/8 18/24/8

f 14/23/8 18/24/8 15/25/8

f 17/22/8 18/24/8 14/23/8

usemtl _1
v -588.618 -3.1477e-014 -0
vt 588.618 1.59378e-030
f 17/22/7 18/24/7 20/27/7

usemtl _2
f 20/27/8 18/24/8 17/22/8

usemtl _1
v -229.938 -8.18607e-014 -0
vt 229.938 5.01766e-030
f 20/27/7 18/24/7 21/28/7

usemtl _2
f 21/28/8 18/24/8 20/27/8

usemtl _1
v -229.938 -8.3536e-014 -439.317
vt 229.938 439.317
f 21/28/7 18/24/7 22/29/7

usemtl _2
f 22/29/8 18/24/8 21/28/8

usemtl _1
vn 2.87729e-018 -1 -8.7673e-017
v 3224.35 1.95897e-013 -2023.5
vt -3224.35 2023.5
f 18/24/9 23/30/9 22/29/9

f 19/26/9 23/30/9 18/24/9

v -2909.84 1.95897e-013 -2023.5
vt 2909.84 2023.5
f 23/30/9 19/26/9 24/31/9

vn -2.87729e-018 1 8.7673e-017
f 24/31/10 19/26/10 23/30/10

f 18/24/10 23/30/10 19/26/10

f 22/29/10 23/30/10 18/24/10

v 3224.35 1.95897e-013 -439.317
vt -3224.35 439.317
f 22/29/9 23/30/9 25/32/9

f 25/32/10 23/30/10 22/29/10

f 21/28/7 22/29/7 25/32/7

usemtl _2
f 25/32/8 22/29/8 21/28/8

usemtl _1
v 0 0 -0
vt 0 0
f 21/28/7 25/32/7 26/33/7

usemtl _2
f 26/33/8 25/32/8 21/28/8

usemtl _1
v 3224.35 -8.18607e-014 -0
vt -3224.35 7.33526e-030
f 26/33/7 25/32/7 27/34/7

usemtl _2
f 27/34/8 25/32/8 26/33/8

usemtl _1
vt -3224.35 1.19543e-029
v 0 1.76521e-013 1396.5
vt -9.50393e-031 -1396.5
f 27/35/5 28/36/5 26/33/5

v 54.4241 1.95897e-013 1396.5
vt -54.4241 -1396.5
f 28/36/5 27/35/5 29/37/5

f 26/33/6 28/36/6 27/35/6

vt -1.87456e-030 -1396.5
v -229.938 9.46603e-014 1396.5
vt 229.938 -1396.5
f 28/38/7 30/39/7 26/33/7

f 10/15/7 30/39/7 28/38/7

f 10/15/7 11/16/7 30/39/7

usemtl _2
f 10/15/8 11/16/8 8/13/8

f 30/39/8 11/16/8 10/15/8

usemtl _1
vn 1.0768e-016 -1 4.4988e-017
v -499.702 -3.1477e-014 1141.29
vt 499.702 -1141.29
f 11/16/11 31/40/11 30/39/11

v -584.243 -3.1477e-014 1141.29
vt 584.243 -1141.29
f 31/40/11 11/16/11 32/41/11

vn -1.0768e-016 1 -4.4988e-017
f 32/41/12 11/16/12 31/40/12

f 11/16/7 12/17/7 32/41/7

usemtl _2
f 11/16/8 12/17/8 8/13/8

f 32/41/8 12/17/8 11/16/8

usemtl _1
vn 4.07901e-019 -1 2.54165e-019
v -588.618 -3.1477e-014 259.727
vt 588.618 -259.727
f 12/17/13 33/42/13 32/41/13

f 12/17/13 17/22/13 33/42/13

f 12/17/13 16/21/13 17/22/13

f 13/18/13 16/21/13 12/17/13

f 6/8/13 16/21/13 13/18/13

f 16/21/13 6/8/13 2/5/13

usemtl _4
vn -4.07901e-019 1 -2.54165e-019
f 2/5/14 6/8/14 16/21/14

usemtl _3
vt 1141.29 -3.1477e-014
vn -1 0 -0
v -928.39 90.8122 1100.38
vt 1100.38 90.8122
vt 259.727 -3.1477e-014
f 6/43/15 34/44/15 2/45/15

v -928.39 169.187 1100.38
vt 1100.38 169.187
f 34/44/15 6/43/15 35/46/15

vn 1 -0 0
f 2/45/16 34/44/16 6/43/16

v -928.39 90.8122 990.379
vt 990.379 90.8122
f 2/45/15 34/44/15 36/47/15

f 36/47/16 34/44/16 2/45/16

v -928.39 90.8122 950.824
vt 950.824 90.8122
f 2/45/15 36/47/15 37/48/15

f 37/48/16 36/47/16 2/45/16

v -928.39 169.187 950.824
vt 950.824 169.187
f 37/48/15 36/47/15 38/49/15

f 38/49/16 36/47/16 37/48/16

v -928.39 169.187 990.379
vt 990.379 169.187
f 39/50/15 38/49/15 36/47/15

vt 259.727 270.125
f 39/50/15 4/51/15 38/49/15

f 35/46/15 4/51/15 39/50/15

v -928.39 270.125 1141.29
vt 1141.29 270.125
f 35/46/15 40/52/15 4/51/15

f 40/52/15 35/46/15 6/43/15

f 6/43/16 35/46/16 40/52/16

f 35/46/16 6/43/16 34/44/16

f 4/51/16 40/52/16 35/46/16

usemtl _5
v -499.702 270.125 1141.29
vt -499.702 -1141.29
vn 0 1 -0
vt -928.39 -259.727
vt -928.39 -1141.29
f 41/53/17 4/54/17 40/55/17

v -499.702 270.125 259.727
vt -499.702 -259.727
f 4/54/17 41/53/17 42/56/17

vn -0 -1 0
f 40/55/18 4/54/18 41/53/18

usemtl FrontColor
vt -928.577 -259.727
f 1/57/17 40/55/17 4/54/17

v -928.577 270.125 1141.29
vt -928.577 -1141.29
f 40/55/17 1/57/17 43/58/17

usemtl BackColor
f 43/58/18 1/57/18 40/55/18

f 4/54/18 40/55/18 1/57/18

f 4/4/2 1/1/2 2/2/2

usemtl _3
v -928.39 90.8122 304.846
vt 304.846 90.8122
f 2/45/15 44/59/15 4/51/15

v -928.39 90.8122 414.846
vt 414.846 90.8122
f 2/45/15 45/60/15 44/59/15

v -928.39 90.8122 457.348
vt 457.348 90.8122
f 2/45/15 46/61/15 45/60/15

v -928.39 90.8122 567.348
vt 567.348 90.8122
f 2/45/15 47/62/15 46/61/15

v -928.39 90.8122 606.903
vt 606.903 90.8122
f 2/45/15 48/63/15 47/62/15

v -928.39 90.8122 798.322
vt 798.322 90.8122
f 2/45/15 49/64/15 48/63/15

v -928.39 90.8122 840.824
vt 840.824 90.8122
f 2/45/15 50/65/15 49/64/15

f 2/45/15 37/48/15 50/65/15

f 50/65/16 37/48/16 2/45/16

f 49/64/16 50/65/16 2/45/16

v -928.39 169.187 798.322
vt 798.322 169.187
f 49/64/15 50/65/15 51/66/15

f 51/66/16 50/65/16 49/64/16

v -928.39 169.187 840.824
vt 840.824 169.187
f 52/67/15 51/66/15 50/65/15

f 52/67/15 4/51/15 51/66/15

f 38/49/15 4/51/15 52/67/15

f 38/49/16 4/51/16 39/50/16

f 52/67/16 4/51/16 38/49/16

f 51/66/16 4/51/16 52/67/16

v -928.39 169.187 606.903
vt 606.903 169.187
f 51/66/15 4/51/15 53/68/15

f 53/68/16 4/51/16 51/66/16

v -928.39 169.187 567.348
vt 567.348 169.187
f 53/68/15 4/51/15 54/69/15

f 54/69/16 4/51/16 53/68/16

v -928.39 169.187 457.348
vt 457.348 169.187
f 54/69/15 4/51/15 55/70/15

f 55/70/16 4/51/16 54/69/16

v -928.39 169.187 414.846
vt 414.846 169.187
f 55/70/15 4/51/15 56/71/15

f 56/71/16 4/51/16 55/70/16

v -928.39 169.187 304.846
vt 304.846 169.187
f 56/71/15 4/51/15 57/72/15

f 57/72/16 4/51/16 56/71/16

f 57/72/15 4/51/15 44/59/15

f 44/59/16 4/51/16 57/72/16

f 4/51/16 44/59/16 2/45/16

f 44/59/16 45/60/16 2/45/16

f 45/60/16 46/61/16 2/45/16

f 45/60/15 46/61/15 56/71/15

f 56/71/16 46/61/16 45/60/16

f 55/70/15 56/71/15 46/61/15

f 46/61/16 56/71/16 55/70/16

f 46/61/16 47/62/16 2/45/16

f 47/62/16 48/63/16 2/45/16

f 47/62/15 48/63/15 54/69/15

f 54/69/16 48/63/16 47/62/16

f 53/68/15 54/69/15 48/63/15

f 48/63/16 54/69/16 53/68/16

f 48/63/16 49/64/16 2/45/16

vt 841.556 -3.1477e-014
f 4/4/1 16/73/1 2/2/1

v -841.556 169.25 259.727
vt 841.556 169.25
f 16/73/1 4/4/1 58/74/1

f 2/2/2 16/73/2 4/4/2

f 58/74/2 4/4/2 16/73/2

v -588.618 169.25 259.727
vt 588.618 169.25
f 58/74/1 4/4/1 59/75/1

f 59/75/2 4/4/2 58/74/2

vt 499.702 270.125
f 42/76/1 59/75/1 4/4/1

v -499.702 -3.1477e-014 259.727
vt 499.702 -3.1477e-014
f 60/77/1 59/75/1 42/76/1

vt 588.618 -3.1477e-014
f 59/75/1 60/77/1 33/78/1

f 33/78/2 60/77/2 59/75/2

usemtl _1
vt 229.938 2.56886e-030
vt 499.702 -259.727
f 33/42/11 21/79/11 60/80/11

vt 588.618 -1.43537e-030
f 21/79/11 33/42/11 20/81/11

f 20/81/12 33/42/12 21/79/12

f 33/42/7 17/22/7 20/27/7

usemtl _2
f 20/27/8 17/22/8 33/42/8

usemtl _4
f 33/42/14 17/22/14 12/17/14

f 17/22/14 16/21/14 12/17/14

f 12/17/14 16/21/14 13/18/14

f 13/18/14 16/21/14 6/8/14

usemtl _3
vt -852.951 -3.1477e-014
vn 0 0 1
v -837.18 169.25 1141.29
vt -837.18 169.25
vt -928.39 -3.1477e-014
f 13/82/19 61/83/19 6/84/19

vt -837.18 -3.1477e-014
f 61/83/19 13/82/19 12/85/19

vn -0 -0 -1
f 12/85/20 13/82/20 61/83/20

f 6/84/20 61/83/20 13/82/20

vt -928.39 270.125
f 6/84/19 61/83/19 40/86/19

f 40/86/20 61/83/20 6/84/20

vt -499.702 270.125
f 40/86/19 61/83/19 41/87/19

f 41/87/20 61/83/20 40/86/20

v -584.243 169.25 1141.29
vt -584.243 169.25
f 62/88/19 41/87/19 61/83/19

vt -584.243 -3.1477e-014
f 32/89/19 41/87/19 62/88/19

vt -499.702 -3.1477e-014
f 41/87/19 32/89/19 31/90/19

f 31/90/20 32/89/20 41/87/20

usemtl _1
f 32/41/13 60/80/13 31/40/13

f 32/41/13 33/42/13 60/80/13

usemtl _4
f 32/41/14 33/42/14 12/17/14

f 60/80/14 33/42/14 32/41/14

usemtl _1
f 60/80/12 21/79/12 33/42/12

f 60/80/11 21/79/11 31/40/11

f 31/40/12 21/79/12 60/80/12

f 30/39/11 31/40/11 21/79/11

f 30/39/12 31/40/12 11/16/12

f 21/79/12 31/40/12 30/39/12

f 21/28/7 26/33/7 30/39/7

usemtl _2
f 30/39/8 26/33/8 21/28/8

f 26/33/8 30/39/8 28/38/8

f 28/38/8 30/39/8 10/15/8

usemtl _1
f 10/15/7 28/38/7 29/37/7

usemtl _2
f 29/37/8 28/38/8 10/15/8

usemtl _1
f 29/37/6 27/35/6 28/36/6

f 29/37/5 27/35/5 10/15/5

f 10/15/6 27/35/6 29/37/6

f 9/14/5 10/15/5 27/35/5

f 27/35/6 10/15/6 9/14/6

usemtl _3
v -499.702 90.8122 1100.38
vt -1100.38 90.8122
vn 1 0 -0
vt -1141.29 -3.1477e-014
vt -259.727 -3.1477e-014
f 63/91/21 31/92/21 60/93/21

vt -1141.29 270.125
f 31/92/21 63/91/21 41/94/21

vn -1 -0 0
f 41/94/22 63/91/22 31/92/22

v -499.702 169.187 1100.38
vt -1100.38 169.187
f 64/95/21 41/94/21 63/91/21

vt -259.727 270.125
f 41/94/21 64/95/21 42/96/21

f 42/96/22 64/95/22 41/94/22

v -499.702 169.187 990.379
vt -990.379 169.187
f 42/96/21 64/95/21 65/97/21

f 65/97/22 64/95/22 42/96/22

v -499.702 169.187 950.824
vt -950.824 169.187
f 42/96/21 65/97/21 66/98/21

f 66/98/22 65/97/22 42/96/22

v -499.702 90.8122 950.824
vt -950.824 90.8122
f 66/98/21 65/97/21 67/99/21

f 67/99/22 65/97/22 66/98/22

v -499.702 90.8122 990.379
vt -990.379 90.8122
f 68/100/21 67/99/21 65/97/21

f 68/100/21 60/93/21 67/99/21

f 63/91/21 60/93/21 68/100/21

f 60/93/22 31/92/22 63/91/22

usemtl _4
f 31/40/14 60/80/14 32/41/14

usemtl _3
f 68/100/22 60/93/22 63/91/22

f 67/99/22 60/93/22 68/100/22

v -499.702 90.8122 840.824
vt -840.824 90.8122
f 67/99/21 60/93/21 69/101/21

f 69/101/22 60/93/22 67/99/22

v -499.702 90.8122 798.322
vt -798.322 90.8122
f 69/101/21 60/93/21 70/102/21

f 70/102/22 60/93/22 69/101/22

v -499.702 90.8122 606.903
vt -606.903 90.8122
f 70/102/21 60/93/21 71/103/21

f 71/103/22 60/93/22 70/102/22

v -499.702 90.8122 567.348
vt -567.348 90.8122
f 71/103/21 60/93/21 72/104/21

f 72/104/22 60/93/22 71/103/22

v -499.702 90.8122 457.348
vt -457.348 90.8122
f 72/104/21 60/93/21 73/105/21

f 73/105/22 60/93/22 72/104/22

v -499.702 90.8122 414.846
vt -414.846 90.8122
f 73/105/21 60/93/21 74/106/21

f 74/106/22 60/93/22 73/105/22

v -499.702 90.8122 304.846
vt -304.846 90.8122
f 74/106/21 60/93/21 75/107/21

f 75/107/22 60/93/22 74/106/22

v -499.702 169.187 304.846
vt -304.846 169.187
f 75/107/21 60/93/21 76/108/21

f 76/108/22 60/93/22 75/107/22

f 42/96/21 76/108/21 60/93/21

v -499.702 169.187 414.846
vt -414.846 169.187
f 42/96/21 77/109/21 76/108/21

v -499.702 169.187 457.348
vt -457.348 169.187
f 42/96/21 78/110/21 77/109/21

v -499.702 169.187 567.348
vt -567.348 169.187
f 42/96/21 79/111/21 78/110/21

v -499.702 169.187 606.903
vt -606.903 169.187
f 42/96/21 80/112/21 79/111/21

v -499.702 169.187 798.322
vt -798.322 169.187
f 42/96/21 81/113/21 80/112/21

v -499.702 169.187 840.824
vt -840.824 169.187
f 42/96/21 82/114/21 81/113/21

f 42/96/21 66/98/21 82/114/21

f 82/114/22 66/98/22 42/96/22

f 81/113/22 82/114/22 42/96/22

f 81/113/21 82/114/21 70/102/21

f 70/102/22 82/114/22 81/113/22

f 69/101/21 70/102/21 82/114/21

f 82/114/22 70/102/22 69/101/22

f 80/112/22 81/113/22 42/96/22

f 79/111/22 80/112/22 42/96/22

f 79/111/21 80/112/21 72/104/21

f 72/104/22 80/112/22 79/111/22

f 71/103/21 72/104/21 80/112/21

f 80/112/22 72/104/22 71/103/22

f 78/110/22 79/111/22 42/96/22

f 77/109/22 78/110/22 42/96/22

f 77/109/21 78/110/21 74/106/21

f 74/106/22 78/110/22 77/109/22

f 73/105/21 74/106/21 78/110/21

f 78/110/22 74/106/22 73/105/22

f 76/108/22 77/109/22 42/96/22

f 60/93/22 76/108/22 42/96/22

f 42/76/2 59/75/2 60/77/2

f 4/4/2 59/75/2 42/76/2

usemtl _5
f 42/56/18 41/53/18 4/54/18

usemtl _3
f 65/97/22 67/99/22 68/100/22

f 63/91/22 41/94/22 64/95/22

f 62/88/20 41/87/20 32/89/20

f 61/83/20 41/87/20 62/88/20

usemtl _1
f 13/18/6 6/8/6 8/13/6

f 6/8/6 5/6/6 8/13/6

usemtl Grass_Dark_Green
vt 25.7707 -28.7569
f 6/115/4 2/11/4 5/10/4

usemtl _3
f 50/65/16 51/66/16 52/67/16

f 39/50/16 4/51/16 35/46/16

f 36/47/16 38/49/16 39/50/16

