# Blender v2.74 (sub 0) OBJ File: ''
# www.blender.org
mtllib grass.mtl
o Cylinder58
v -7.346624 0.046450 12.176513
v -6.801698 0.046450 11.950971
v -6.333777 0.046450 11.591681
v -5.974444 0.046450 11.123948
v -5.749043 0.046450 10.578890
v -5.671849 0.046450 9.994015
v -5.748987 0.046450 9.409324
v -5.974529 0.046450 8.864398
v -6.333818 0.046450 8.396477
v -6.801551 0.046450 8.037144
v -7.346609 0.046450 7.811742
v -7.931485 0.046450 7.734549
v -8.516175 0.046450 7.811687
v -9.061102 0.046450 8.037229
v -9.529022 0.046450 8.396518
v -9.888355 0.046450 8.864251
v -10.113757 0.046450 9.409309
v -10.190950 0.046450 9.994184
v -10.113812 0.046450 10.578876
v -9.888270 0.046450 11.123801
v -9.528981 0.046450 11.591722
v -9.061249 0.046450 11.951056
v -8.516191 0.046450 12.176457
v -7.931315 0.046450 12.253651
v -7.346624 -1.872450 12.176513
v -6.801698 -1.872450 11.950971
v -6.333777 -1.872450 11.591681
v -5.974444 -1.872450 11.123948
v -5.749043 -1.872450 10.578890
v -5.671849 -1.872450 9.994015
v -5.748987 -1.872450 9.409324
v -5.974529 -1.872450 8.864398
v -6.333818 -1.872450 8.396477
v -6.801551 -1.872450 8.037144
v -7.346609 -1.872450 7.811742
v -7.931485 -1.872450 7.734549
v -8.516175 -1.872450 7.811687
v -9.061102 -1.872450 8.037229
v -9.529022 -1.872450 8.396518
v -9.888355 -1.872450 8.864251
v -10.113757 -1.872450 9.409309
v -10.190950 -1.872450 9.994184
v -10.113812 -1.872450 10.578876
v -9.888270 -1.872450 11.123801
v -9.528981 -1.872450 11.591722
v -9.061249 -1.872450 11.951056
v -8.516191 -1.872450 12.176457
v -7.931315 -1.872450 12.253651
v -7.931400 0.046450 9.994100
v -7.931400 -1.872450 9.994100
vt 6.000000 0.000000
vt 7.552800 0.204000
vt 9.000000 0.804000
vt 10.243200 1.756800
vt 11.196000 3.000000
vt 11.796000 4.447200
vt 12.000000 6.000000
vt 11.796000 7.552800
vt 11.196000 9.000000
vt 10.243200 10.243200
vt 9.000000 11.196000
vt 7.552800 11.796000
vt 6.000000 12.000000
vt 4.447200 11.796000
vt 3.000000 11.196000
vt 1.756800 10.243200
vt 0.804000 9.000000
vt 0.204000 7.552800
vt 0.000000 6.000000
vt 0.204000 4.447200
vt 0.804000 3.000000
vt 1.756800 1.756800
vt 3.000000 0.804000
vt 4.447200 0.204000
vt 6.000000 6.000000
vn 0.258800 0.000000 0.965900
vn 0.500000 0.000000 0.866000
vn 0.707000 0.000000 0.707200
vn 0.866000 0.000000 0.500000
vn 0.966000 0.000000 0.258700
vn 1.000000 0.000000 0.000000
vn 0.965900 0.000000 -0.258800
vn 0.866000 0.000000 -0.500000
vn 0.707200 0.000000 -0.707000
vn 0.500000 0.000000 -0.866000
vn 0.258700 0.000000 -0.966000
vn 0.000000 0.000000 -1.000000
vn -0.258800 0.000000 -0.965900
vn -0.500000 0.000000 -0.866000
vn -0.707000 0.000000 -0.707200
vn -0.866000 0.000000 -0.500000
vn -0.966000 0.000000 -0.258700
vn -1.000000 0.000000 -0.000000
vn -0.965900 0.000000 0.258800
vn -0.866000 0.000000 0.500000
vn -0.707200 0.000000 0.707000
vn -0.500000 0.000000 0.866000
vn -0.258700 0.000000 0.966000
vn -0.000000 0.000000 1.000000
vn 0.000000 1.000000 0.000000
vn 0.000000 -1.000000 0.000000
usemtl floorMaterial
s 1
f 1/1/1 25/1/1 26/2/2 2/2/2
f 2/2/2 26/2/2 27/3/3 3/3/3
f 3/3/3 27/3/3 28/4/4 4/4/4
f 4/4/4 28/4/4 29/5/5 5/5/5
f 5/5/5 29/5/5 30/6/6 6/6/6
f 6/6/6 30/6/6 31/7/7 7/7/7
f 7/7/7 31/7/7 32/8/8 8/8/8
f 8/8/8 32/8/8 33/9/9 9/9/9
f 9/9/9 33/9/9 34/10/10 10/10/10
f 10/10/10 34/10/10 35/11/11 11/11/11
f 11/11/11 35/11/11 36/12/12 12/12/12
f 12/12/12 36/12/12 37/13/13 13/13/13
f 13/13/13 37/13/13 38/14/14 14/14/14
f 14/14/14 38/14/14 39/15/15 15/15/15
f 15/15/15 39/15/15 40/16/16 16/16/16
f 16/16/16 40/16/16 41/17/17 17/17/17
f 17/17/17 41/17/17 42/18/18 18/18/18
f 18/18/18 42/18/18 43/19/19 19/19/19
f 19/19/19 43/19/19 44/20/20 20/20/20
f 20/20/20 44/20/20 45/21/21 21/21/21
f 21/21/21 45/21/21 46/22/22 22/22/22
f 22/22/22 46/22/22 47/23/23 23/23/23
f 23/23/23 47/23/23 48/24/24 24/24/24
f 24/24/24 48/24/24 25/1/1 1/1/1
f 1/1/25 2/2/25 49/25/25
f 2/2/25 3/3/25 49/25/25
f 3/3/25 4/4/25 49/25/25
f 4/4/25 5/5/25 49/25/25
f 5/5/25 6/6/25 49/25/25
f 6/6/25 7/7/25 49/25/25
f 7/7/25 8/8/25 49/25/25
f 8/8/25 9/9/25 49/25/25
f 9/9/25 10/10/25 49/25/25
f 10/10/25 11/11/25 49/25/25
f 11/11/25 12/12/25 49/25/25
f 12/12/25 13/13/25 49/25/25
f 13/13/25 14/14/25 49/25/25
f 14/14/25 15/15/25 49/25/25
f 15/15/25 16/16/25 49/25/25
f 16/16/25 17/17/25 49/25/25
f 17/17/25 18/18/25 49/25/25
f 18/18/25 19/19/25 49/25/25
f 19/19/25 20/20/25 49/25/25
f 20/20/25 21/21/25 49/25/25
f 21/21/25 22/22/25 49/25/25
f 22/22/25 23/23/25 49/25/25
f 23/23/25 24/24/25 49/25/25
f 24/24/25 1/1/25 49/25/25
f 26/2/26 25/1/26 50/25/26
f 27/3/26 26/2/26 50/25/26
f 28/4/26 27/3/26 50/25/26
f 29/5/26 28/4/26 50/25/26
f 30/6/26 29/5/26 50/25/26
f 31/7/26 30/6/26 50/25/26
f 32/8/26 31/7/26 50/25/26
f 33/9/26 32/8/26 50/25/26
f 34/10/26 33/9/26 50/25/26
f 35/11/26 34/10/26 50/25/26
f 36/12/26 35/11/26 50/25/26
f 37/13/26 36/12/26 50/25/26
f 38/14/26 37/13/26 50/25/26
f 39/15/26 38/14/26 50/25/26
f 40/16/26 39/15/26 50/25/26
f 41/17/26 40/16/26 50/25/26
f 42/18/26 41/17/26 50/25/26
f 43/19/26 42/18/26 50/25/26
f 44/20/26 43/19/26 50/25/26
f 45/21/26 44/20/26 50/25/26
f 46/22/26 45/21/26 50/25/26
f 47/23/26 46/22/26 50/25/26
f 48/24/26 47/23/26 50/25/26
f 25/1/26 48/24/26 50/25/26
