# This file uses centimeters as units for non-parametric coordinates.

mtllib beer.mtl
v 0.707107 0.016617 -0.707107
v 0.000000 0.016617 -1.000000
v -0.707107 0.016617 -0.707107
v -1.000000 0.016617 0.000000
v -0.707107 0.016617 0.707107
v 0.000000 0.016617 1.000000
v 0.707107 0.016617 0.707107
v 1.000000 0.016617 0.000000
v 0.691065 0.653252 -0.691065
v 0.000000 0.653252 -0.977313
v -0.691065 0.653252 -0.691065
v -0.977313 0.653252 0.000000
v -0.691065 0.653252 0.691065
v 0.000000 0.653252 0.977313
v 0.691065 0.653252 0.691065
v 0.977313 0.653252 0.000000
v 0.564919 1.353895 -0.564919
v 0.000000 1.353895 -0.798917
v -0.564919 1.353895 -0.564919
v -0.798917 1.353895 0.000000
v -0.564919 1.353895 0.564919
v 0.000000 1.353895 0.798917
v 0.564919 1.353895 0.564919
v 0.798917 1.353895 0.000000
v 0.569822 2.069503 -0.569822
v 0.000000 2.069503 -0.805850
v -0.569822 2.069503 -0.569822
v -0.805850 2.069503 0.000000
v -0.569822 2.069503 0.569822
v 0.000000 2.069503 0.805850
v 0.569822 2.069503 0.569822
v 0.805850 2.069503 0.000000
v 0.701199 2.772075 -0.701199
v 0.000000 2.772075 -0.991644
v -0.701199 2.772075 -0.701199
v -0.991644 2.772075 0.000000
v -0.701199 2.772075 0.701199
v 0.000000 2.772075 0.991645
v 0.701199 2.772075 0.701199
v 0.991645 2.772075 0.000000
v 0.763170 3.640950 -0.763170
v -0.000000 3.640950 -1.079285
v -0.763170 3.640950 -0.763170
v -1.079285 3.640950 -0.000000
v -0.763170 3.640950 0.763170
v -0.000000 3.640950 1.079286
v 0.763170 3.640950 0.763170
v 1.079286 3.640950 -0.000000
v 0.000000 0.016617 0.000000
v 0.791177 3.692605 -0.791177
v -0.000000 3.692605 -1.118894
v -0.791177 3.692605 -0.791177
v -1.118894 3.692605 -0.000000
v -0.791177 3.692605 0.791177
v -0.000000 3.692605 1.118894
v 0.791177 3.692605 0.791177
v 1.118894 3.692605 -0.000000
v 0.808166 3.853118 -0.808166
v -0.000000 3.853118 -1.007450
v -0.808166 3.853118 -0.758297
v -1.142919 3.853118 -0.000000
v -0.763285 3.853118 0.808166
v -0.000000 3.853118 1.060463
v 0.808166 3.853118 0.808166
v 1.142919 3.853118 -0.000000
v 0.657874 4.041730 -0.660585
v 0.024412 4.039994 -0.849909
v -0.634373 4.028109 -0.697486
v -0.996079 4.028109 0.000000
v -0.644262 4.002450 0.596551
v -0.000000 3.974085 0.950430
v 0.726638 4.028109 0.726638
v 1.027621 4.028109 0.000000
v 0.482094 4.191830 -0.487339
v 0.018651 4.188674 -0.597594
v 0.000000 4.136482 0.000000
v -0.539800 4.139372 -0.422711
v -0.664665 4.072193 0.000000
v -0.638252 4.173744 0.423286
v -0.096790 4.192477 0.651991
v 0.413887 4.218172 0.481357
v 0.862554 4.124794 0.000000
vt 0.000016 0.020672
vt 0.000016 0.169219
vt 0.875016 0.169219
vt 0.125016 0.020672
vt 0.125016 0.169219
vt 0.250016 0.020672
vt 0.250016 0.169219
vt 0.375016 0.020672
vt 0.375016 0.169219
vt 0.500016 0.020672
vt 0.500016 0.169219
vt 0.625016 0.169219
vt 0.750016 0.169219
vt 0.000016 0.332701
vt 0.875016 0.332701
vt 0.125016 0.332701
vt 0.250016 0.332701
vt 0.375016 0.332701
vt 0.500016 0.332701
vt 0.625016 0.332701
vt 0.750016 0.332701
vt 0.000016 0.499675
vt 0.875016 0.499675
vt 0.125016 0.499675
vt 0.250016 0.499675
vt 0.375016 0.499675
vt 0.500016 0.499675
vt 0.625016 0.499675
vt 0.750016 0.499675
vt 0.000016 0.663607
vt 0.875016 0.663607
vt 0.125016 0.663607
vt 0.250016 0.663607
vt 0.375016 0.663607
vt 0.500016 0.663607
vt 0.625016 0.663607
vt 0.750016 0.663607
vt 0.000016 0.866343
vt 0.875016 0.866343
vt 0.125016 0.866343
vt 0.250016 0.866343
vt 0.375016 0.866343
vt 0.500016 0.866343
vt 0.625016 0.866343
vt 0.750016 0.866343
vt 0.125016 0.020672
vt 0.875016 0.979328
vt 0.000016 0.979328
vt 0.163973 0.979328
vt 0.125016 0.979328
vt 0.250016 0.979328
vt 0.375016 0.979328
vt 0.500016 0.979328
vt 0.625016 0.979328
vt 0.000016 0.878395
vt 0.875016 0.878395
vt 0.125016 0.878395
vt 0.250016 0.878395
vt 0.375016 0.878395
vt 0.500016 0.878395
vt 0.625016 0.878395
vt 0.750016 0.878395
vt 0.000016 0.915848
vt 0.875016 0.915848
vt 0.125016 0.915848
vt 0.250016 0.915848
vt 0.375016 0.915848
vt 0.500016 0.915848
vt 0.625016 0.915848
vt 0.750016 0.915848
vt 1.000016 0.020672
vt 1.000016 0.169219
vt 1.000016 0.332701
vt 1.000016 0.499675
vt 1.000016 0.663607
vt 0.875016 0.020672
vt 1.125016 0.020672
vt 0.625016 0.020672
vt 0.750016 0.020672
vt 1.000016 0.979328
vt 1.625016 0.979328
vt 1.163973 0.979328
vt 0.750016 0.979328
vt 1.000016 0.866343
vt 1.000016 0.878395
vt 1.000016 0.915848
vt 0.875016 0.979328
vt 1.000016 0.979328
vt 0.000016 0.979328
vt 0.125016 0.979328
vt 0.250016 0.979328
vt 0.375016 0.979328
vt 0.500016 0.979328
vt 0.625016 0.979328
vt 1.625016 0.979328
vt 0.750016 0.979328
vn 0.382476 0.032905 -0.923379
vn 0.382476 0.032905 -0.923379
vn 0.379589 0.126910 -0.916409
vn 0.379589 0.126910 -0.916409
vn -0.382476 0.032905 -0.923379
vn -0.382476 0.032905 -0.923379
vn -0.379589 0.126910 -0.916409
vn -0.379589 0.126910 -0.916409
vn -0.923379 0.032905 -0.382476
vn -0.923379 0.032905 -0.382476
vn -0.916409 0.126910 -0.379589
vn -0.916409 0.126910 -0.379589
vn -0.923379 0.032905 0.382476
vn -0.923379 0.032905 0.382476
vn -0.916409 0.126910 0.379589
vn -0.916409 0.126910 0.379589
vn -0.382476 0.032905 0.923379
vn -0.382476 0.032905 0.923379
vn -0.379589 0.126910 0.916409
vn -0.379589 0.126910 0.916409
vn 0.382476 0.032905 0.923379
vn 0.382476 0.032905 0.923379
vn 0.379589 0.126910 0.916409
vn 0.379589 0.126910 0.916409
vn 0.923379 0.032905 0.382476
vn 0.923379 0.032905 0.382476
vn 0.916409 0.126910 0.379589
vn 0.916409 0.126910 0.379589
vn 0.923379 0.032905 -0.382476
vn 0.923379 0.032905 -0.382476
vn 0.916409 0.126910 -0.379589
vn 0.916409 0.126910 -0.379589
vn 0.379814 0.122237 -0.916951
vn 0.379814 0.122237 -0.916951
vn -0.379814 0.122237 -0.916951
vn -0.379814 0.122237 -0.916951
vn -0.916951 0.122237 -0.379814
vn -0.916951 0.122237 -0.379814
vn -0.916951 0.122237 0.379814
vn -0.916951 0.122237 0.379814
vn -0.379814 0.122237 0.916951
vn -0.379814 0.122237 0.916951
vn 0.379814 0.122237 0.916951
vn 0.379814 0.122237 0.916951
vn 0.916951 0.122237 0.379814
vn 0.916951 0.122237 0.379814
vn 0.916951 0.122237 -0.379814
vn 0.916951 0.122237 -0.379814
vn 0.379104 -0.136459 -0.915237
vn 0.379104 -0.136459 -0.915237
vn -0.379104 -0.136459 -0.915237
vn -0.379104 -0.136459 -0.915237
vn -0.915237 -0.136459 -0.379104
vn -0.915237 -0.136459 -0.379104
vn -0.915237 -0.136459 0.379104
vn -0.915237 -0.136459 0.379104
vn -0.379104 -0.136459 0.915237
vn -0.379104 -0.136459 0.915237
vn 0.379104 -0.136459 0.915237
vn 0.379104 -0.136459 0.915237
vn 0.915237 -0.136459 0.379104
vn 0.915237 -0.136459 0.379104
vn 0.915237 -0.136459 -0.379104
vn 0.915237 -0.136459 -0.379104
vn 0.378419 -0.148867 -0.913585
vn 0.378419 -0.148867 -0.913585
vn -0.378419 -0.148867 -0.913585
vn -0.378419 -0.148867 -0.913585
vn -0.913585 -0.148867 -0.378419
vn -0.913585 -0.148867 -0.378419
vn -0.913585 -0.148867 0.378419
vn -0.913585 -0.148867 0.378419
vn -0.378419 -0.148867 0.913585
vn -0.378419 -0.148867 0.913585
vn 0.378419 -0.148867 0.913585
vn 0.378419 -0.148867 0.913585
vn 0.913585 -0.148867 0.378419
vn 0.913585 -0.148867 0.378419
vn 0.913585 -0.148867 -0.378419
vn 0.913585 -0.148867 -0.378419
vn 0.379101 -0.136519 -0.915230
vn 0.379101 -0.136519 -0.915230
vn -0.379100 -0.136519 -0.915230
vn -0.379101 -0.136519 -0.915230
vn -0.915230 -0.136519 -0.379100
vn -0.915230 -0.136519 -0.379100
vn -0.915230 -0.136519 0.379100
vn -0.915230 -0.136519 0.379100
vn -0.379101 -0.136519 0.915230
vn -0.379101 -0.136519 0.915230
vn 0.379101 -0.136519 0.915230
vn 0.379101 -0.136519 0.915230
vn 0.915230 -0.136519 0.379101
vn 0.915230 -0.136519 0.379101
vn 0.915230 -0.136519 -0.379101
vn 0.915230 -0.136519 -0.379101
vn 0.000000 -1.000000 0.000000
vn 0.000000 -1.000000 0.000000
vn 0.000000 -1.000000 0.000000
vn 0.000000 -1.000000 0.000000
vn 0.000000 -1.000000 0.000000
vn 0.000000 -1.000000 0.000000
vn 0.000000 -1.000000 0.000000
vn 0.000000 -1.000000 0.000000
vn 0.000000 -1.000000 0.000000
vn 0.000414 0.993567 0.113249
vn -0.044808 0.995328 0.085530
vn -0.033318 0.999213 -0.021519
vn -0.078838 0.991080 0.107451
vn -0.096066 0.993191 -0.065899
vn -0.041524 0.987878 -0.149574
vn -0.033335 0.995345 -0.090431
vn -0.023172 0.988735 -0.147872
vn 0.013547 0.999735 -0.018600
vn 0.312266 -0.578063 -0.753878
vn 0.312266 -0.578063 -0.753878
vn -0.312267 -0.578063 -0.753878
vn -0.312267 -0.578063 -0.753878
vn -0.753878 -0.578063 -0.312266
vn -0.753878 -0.578063 -0.312266
vn -0.753878 -0.578064 0.312266
vn -0.753878 -0.578064 0.312266
vn -0.312266 -0.578063 0.753879
vn -0.312266 -0.578063 0.753879
vn 0.312267 -0.578064 0.753878
vn 0.312266 -0.578064 0.753878
vn 0.753878 -0.578064 0.312266
vn 0.753878 -0.578064 0.312266
vn 0.753878 -0.578064 -0.312267
vn 0.753878 -0.578064 -0.312267
vn 0.302674 0.254249 -0.918556
vn 0.302674 0.254249 -0.918556
vn 0.257137 0.463376 -0.848035
vn 0.255736 0.468658 -0.845552
vn -0.314488 0.375340 -0.871904
vn -0.314488 0.375341 -0.871904
vn -0.276759 0.467067 -0.839793
vn -0.269907 0.482464 -0.833294
vn -0.916758 -0.076981 -0.391955
vn -0.916758 -0.076981 -0.391955
vn -0.852022 0.355459 -0.384328
vn -0.850975 0.358299 -0.384009
vn -0.914496 -0.010388 0.404460
vn -0.914497 -0.010388 0.404460
vn -0.831302 0.384977 0.400911
vn -0.823987 0.402180 0.399119
vn -0.345650 0.149619 0.926358
vn -0.345650 0.149619 0.926359
vn -0.312194 0.492060 0.812657
vn -0.312830 0.488385 0.814627
vn 0.339124 0.102770 0.935111
vn 0.339124 0.102770 0.935111
vn 0.294695 0.334573 0.895107
vn 0.297207 0.323913 0.898192
vn 0.915170 -0.136983 0.379076
vn 0.915170 -0.136983 0.379076
vn 0.902720 0.212795 0.373919
vn 0.902720 0.212795 0.373919
vn 0.915171 -0.136983 -0.379076
vn 0.915171 -0.136983 -0.379076
vn 0.871575 0.304639 -0.384126
vn 0.868855 0.313163 -0.383431
vn 0.195454 0.657110 -0.728014
vn 0.195454 0.657109 -0.728014
vn -0.217824 0.588925 -0.778280
vn -0.217824 0.588925 -0.778280
vn -0.670038 0.669549 -0.320552
vn -0.670038 0.669549 -0.320552
vn -0.611875 0.718030 0.331726
vn -0.611875 0.718030 0.331726
vn -0.231483 0.785272 0.574251
vn -0.231483 0.785272 0.574251
vn 0.224503 0.572330 0.788693
vn 0.224503 0.572330 0.788693
vn 0.789166 0.519966 0.326883
vn 0.789166 0.519966 0.326883
vn 0.694814 0.640379 -0.327335
vn 0.694814 0.640379 -0.327335
vn 0.140488 0.837502 -0.528066
vn 0.140488 0.837502 -0.528066
vn 0.140488 0.837502 -0.528066
vn 0.140488 0.837502 -0.528066
vn -0.156755 0.896000 -0.415465
vn -0.156755 0.896000 -0.415465
vn -0.156755 0.896000 -0.415465
vn -0.156755 0.896000 -0.415465
vn -0.299712 0.951222 -0.073138
vn -0.299712 0.951222 -0.073138
vn -0.299712 0.951222 -0.073138
vn -0.299712 0.951222 -0.073138
vn -0.490644 0.863371 0.117720
vn -0.490644 0.863371 0.117720
vn -0.490644 0.863371 0.117720
vn -0.490644 0.863371 0.117720
vn -0.308927 0.703193 0.640378
vn -0.308927 0.703193 0.640377
vn -0.308927 0.703194 0.640378
vn -0.308926 0.703193 0.640377
vn 0.117796 0.834543 0.538202
vn 0.117796 0.834543 0.538202
vn 0.117796 0.834543 0.538202
vn 0.117796 0.834543 0.538202
vn 0.427958 0.881977 0.197402
vn 0.427958 0.881977 0.197402
vn 0.427958 0.881977 0.197402
vn 0.427958 0.881977 0.197402
vn 0.479140 0.840153 -0.254103
vn 0.479140 0.840153 -0.254103
vn 0.479140 0.840153 -0.254103
vn 0.479140 0.840153 -0.254103
s 1
usemtl phong1SG
f 1/76/1 2/71/2 10/72/3 9/3/4
s 2
f 2/1/5 3/4/6 11/5/7 10/2/8
s 3
f 3/4/9 4/6/10 12/7/11 11/5/12
s 4
f 4/6/13 5/8/14 13/9/15 12/7/16
s 5
f 5/8/17 6/10/18 14/11/19 13/9/20
s 6
f 6/10/21 7/78/22 15/12/23 14/11/24
s 7
f 7/78/25 8/79/26 16/13/27 15/12/28
s 8
f 8/79/29 1/76/30 9/3/31 16/13/32
s 1
f 9/3/4 10/72/3 18/73/33 17/15/34
s 2
f 10/2/8 11/5/7 19/16/35 18/14/36
s 3
f 11/5/12 12/7/11 20/17/37 19/16/38
s 4
f 12/7/16 13/9/15 21/18/39 20/17/40
s 5
f 13/9/20 14/11/19 22/19/41 21/18/42
s 6
f 14/11/24 15/12/23 23/20/43 22/19/44
s 7
f 15/12/28 16/13/27 24/21/45 23/20/46
s 8
f 16/13/32 9/3/31 17/15/47 24/21/48
s 1
f 17/15/34 18/73/33 26/74/49 25/23/50
s 2
f 18/14/36 19/16/35 27/24/51 26/22/52
s 3
f 19/16/38 20/17/37 28/25/53 27/24/54
s 4
f 20/17/40 21/18/39 29/26/55 28/25/56
s 5
f 21/18/42 22/19/41 30/27/57 29/26/58
s 6
f 22/19/44 23/20/43 31/28/59 30/27/60
s 7
f 23/20/46 24/21/45 32/29/61 31/28/62
s 8
f 24/21/48 17/15/47 25/23/63 32/29/64
s 1
f 25/23/50 26/74/49 34/75/65 33/31/66
s 2
f 26/22/52 27/24/51 35/32/67 34/30/68
s 3
f 27/24/54 28/25/53 36/33/69 35/32/70
s 4
f 28/25/56 29/26/55 37/34/71 36/33/72
s 5
f 29/26/58 30/27/57 38/35/73 37/34/74
s 6
f 30/27/60 31/28/59 39/36/75 38/35/76
s 7
f 31/28/62 32/29/61 40/37/77 39/36/78
s 8
f 32/29/64 25/23/63 33/31/79 40/37/80
s 1
f 33/31/66 34/75/65 42/84/81 41/39/82
s 2
f 34/30/68 35/32/67 43/40/83 42/38/84
s 3
f 35/32/70 36/33/69 44/41/85 43/40/86
s 4
f 36/33/72 37/34/71 45/42/87 44/41/88
s 5
f 37/34/74 38/35/73 46/43/89 45/42/90
s 6
f 38/35/76 39/36/75 47/44/91 46/43/92
s 7
f 39/36/78 40/37/77 48/45/93 47/44/94
s 8
f 40/37/80 33/31/79 41/39/95 48/45/96
s 9
f 2/71/97 1/76/98 49/77/99
f 3/4/100 2/1/97 49/46/99
f 4/6/101 3/4/100 49/46/99
f 5/8/102 4/6/101 49/46/99
f 6/10/103 5/8/102 49/46/99
f 7/78/104 6/10/103 49/46/99
f 8/79/105 7/78/104 49/77/99
f 1/76/98 8/79/105 49/77/99
s 10
f 74/87/106 75/88/107 76/82/108
f 75/89/107 77/90/109 76/49/108
f 77/90/109 78/91/110 76/49/108
f 78/91/110 79/92/111 76/49/108
f 79/92/111 80/93/112 76/49/108
f 80/93/112 81/94/113 76/49/108
f 81/95/113 82/96/114 76/82/108
f 82/96/114 74/87/106 76/82/108
s 1
f 41/39/82 42/84/81 51/85/115 50/56/116
s 2
f 42/38/84 43/40/83 52/57/117 51/55/118
s 3
f 43/40/86 44/41/85 53/58/119 52/57/120
s 4
f 44/41/88 45/42/87 54/59/121 53/58/122
s 5
f 45/42/90 46/43/89 55/60/123 54/59/124
s 6
f 46/43/92 47/44/91 56/61/125 55/60/126
s 7
f 47/44/94 48/45/93 57/62/127 56/61/128
s 8
f 48/45/96 41/39/95 50/56/129 57/62/130
s 11
f 50/56/131 51/85/132 59/86/133 58/64/134
s 12
f 51/55/135 52/57/136 60/65/137 59/63/138
s 13
f 52/57/139 53/58/140 61/66/141 60/65/142
s 14
f 53/58/143 54/59/144 62/67/145 61/66/146
s 15
f 54/59/147 55/60/148 63/68/149 62/67/150
s 16
f 55/60/151 56/61/152 64/69/153 63/68/154
s 17
f 56/61/155 57/62/156 65/70/157 64/69/158
s 18
f 57/62/159 50/56/160 58/64/161 65/70/162
s 11
f 58/64/134 59/86/133 67/80/163 66/47/164
s 12
f 59/63/138 60/65/137 68/50/165 67/48/166
s 13
f 60/65/142 61/66/141 69/51/167 68/50/168
s 14
f 61/66/146 62/67/145 70/52/169 69/51/170
s 15
f 62/67/150 63/68/149 71/53/171 70/52/172
s 16
f 63/68/154 64/69/153 72/54/173 71/53/174
s 17
f 64/69/158 65/70/157 73/83/175 72/54/176
s 18
f 65/70/162 58/64/161 66/47/177 73/83/178
s off
f 66/47/179 67/80/180 75/88/181 74/87/182
f 67/48/183 68/50/184 77/90/185 75/89/186
f 68/50/187 69/51/188 78/91/189 77/90/190
f 69/51/191 70/52/192 79/92/193 78/91/194
f 70/52/195 71/53/196 80/93/197 79/92/198
f 71/53/199 72/54/200 81/94/201 80/93/202
f 72/81/203 73/83/204 82/96/205 81/95/206
f 73/83/207 66/47/208 74/87/209 82/96/210
