# Blender v2.74 (sub 0) OBJ File: ''
# www.blender.org
mtllib speakers.mtl
o Box
v 2.294550 1.860000 0.294550
v 2.294550 1.860000 -0.294550
v 2.294550 0.740000 0.294550
v 2.294550 0.740000 -0.294550
v 1.705450 1.860000 -0.294550
v 1.705450 1.860000 0.294550
v 1.705450 0.740000 -0.294550
v 1.705450 0.740000 0.294550
vt 0.000000 1.000000
vt 0.000000 0.000000
vt 1.000000 0.000000
vt 1.000000 1.000000
vn 1.000000 0.000000 0.000000
vn -1.000000 0.000000 0.000000
vn 0.000000 1.000000 0.000000
vn 0.000000 -1.000000 0.000000
vn 0.000000 0.000000 1.000000
vn 0.000000 0.000000 -1.000000
usemtl speakerMaterial
s 1
f 1/1/1 3/2/1 4/3/1 2/4/1
f 5/1/2 7/2/2 8/3/2 6/4/2
f 5/1/3 6/2/3 1/3/3 2/4/3
f 8/1/4 7/2/4 4/3/4 3/4/4
f 6/1/5 8/2/5 3/3/5 1/4/5
f 2/1/6 4/2/6 7/3/6 5/4/6
o Box1
v -1.705450 1.860000 0.294550
v -1.705450 1.860000 -0.294550
v -1.705450 0.740000 0.294550
v -1.705450 0.740000 -0.294550
v -2.294550 1.860000 -0.294550
v -2.294550 1.860000 0.294550
v -2.294550 0.740000 -0.294550
v -2.294550 0.740000 0.294550
vt 0.000000 1.000000
vt 0.000000 0.000000
vt 1.000000 0.000000
vt 1.000000 1.000000
vn 1.000000 0.000000 0.000000
vn -1.000000 0.000000 0.000000
vn 0.000000 1.000000 0.000000
vn 0.000000 -1.000000 0.000000
vn 0.000000 0.000000 1.000000
vn 0.000000 0.000000 -1.000000
usemtl speakerMaterial
s 1
f 9/5/7 11/6/7 12/7/7 10/8/7
f 13/5/8 15/6/8 16/7/8 14/8/8
f 13/5/9 14/6/9 9/7/9 10/8/9
f 16/5/10 15/6/10 12/7/10 11/8/10
f 14/5/11 16/6/11 11/7/11 9/8/11
f 10/5/12 12/6/12 15/7/12 13/8/12
