# Blender v2.74 (sub 0) OBJ File: ''
# www.blender.org
mtllib tc.mtl
o Box10
v 0.316562 0.255757 -0.349043
v 0.316628 0.255780 -0.292543
v -0.631644 -1.110432 -0.347383
v -0.631578 -1.110409 -0.290883
v 0.363044 0.223565 -0.292584
v 0.362978 0.223542 -0.349084
v -0.585162 -1.142624 -0.290924
v -0.585228 -1.142647 -0.347424
vt 0.000000 1.000000
vt 0.000000 0.000000
vt 1.000000 0.000000
vt 1.000000 1.000000
vn -0.821500 0.570200 0.000700
vn 0.821500 -0.570200 -0.000700
vn 0.570200 0.821500 -0.001000
vn -0.570200 -0.821500 0.001000
vn -0.001200 -0.000400 -1.000000
vn 0.001200 0.000400 1.000000
usemtl woodMaterial
s 1
f 1/1/1 3/2/1 4/3/1 2/4/1
f 5/1/2 7/2/2 8/3/2 6/4/2
f 5/1/3 6/2/3 1/3/3 2/4/3
f 8/1/4 7/2/4 4/3/4 3/4/4
f 6/1/5 8/2/5 3/3/5 1/4/5
f 2/1/6 4/2/6 7/3/6 5/4/6
o Box18
v -0.245552 0.741818 -1.352050
v -0.245552 0.741818 -1.408550
v 0.629596 -0.672285 -1.352050
v 0.629596 -0.672285 -1.408550
v -0.293596 0.712085 -1.408550
v -0.293596 0.712085 -1.352050
v 0.581552 -0.702018 -1.408550
v 0.581552 -0.702018 -1.352050
vt 0.000000 1.000000
vt 0.000000 0.000000
vt 1.000000 0.000000
vt 1.000000 1.000000
vn 0.850300 0.526200 0.000000
vn -0.850300 -0.526200 0.000000
vn -0.526200 0.850300 0.000000
vn 0.526200 -0.850300 0.000000
vn 0.000000 0.000000 1.000000
vn 0.000000 0.000000 -1.000000
usemtl woodMaterial
s 1
f 9/5/7 11/6/7 12/7/7 10/8/7
f 13/5/8 15/6/8 16/7/8 14/8/8
f 13/5/9 14/6/9 9/7/9 10/8/9
f 16/5/10 15/6/10 12/7/10 11/8/10
f 14/5/11 16/6/11 11/7/11 9/8/11
f 10/5/12 12/6/12 15/7/12 13/8/12
o Box13
v -0.245552 0.741818 1.331950
v -0.245552 0.741818 1.275450
v 0.629596 -0.672285 1.331950
v 0.629596 -0.672285 1.275450
v -0.293596 0.712085 1.275450
v -0.293596 0.712085 1.331950
v 0.581552 -0.702018 1.275450
v 0.581552 -0.702018 1.331950
vt 0.000000 1.000000
vt 0.000000 0.000000
vt 1.000000 0.000000
vt 1.000000 1.000000
vn 0.850300 0.526200 0.000000
vn -0.850300 -0.526200 0.000000
vn -0.526200 0.850300 0.000000
vn 0.526200 -0.850300 0.000000
vn 0.000000 0.000000 1.000000
vn 0.000000 0.000000 -1.000000
usemtl woodMaterial
s 1
f 17/9/13 19/10/13 20/11/13 18/12/13
f 21/9/14 23/10/14 24/11/14 22/12/14
f 21/9/15 22/10/15 17/11/15 18/12/15
f 24/9/16 23/10/16 20/11/16 19/12/16
f 22/9/17 24/10/17 19/11/17 17/12/17
f 18/9/18 20/10/18 23/11/18 21/12/18
o Box15
v 0.316562 0.255790 0.637640
v 0.316628 0.255813 0.694140
v -0.631644 -1.110398 0.639301
v -0.631578 -1.110375 0.695801
v 0.363044 0.223598 0.694099
v 0.362978 0.223575 0.637599
v -0.585162 -1.142590 0.695760
v -0.585228 -1.142613 0.639260
vt 0.000000 1.000000
vt 0.000000 0.000000
vt 1.000000 0.000000
vt 1.000000 1.000000
vn -0.821500 0.570200 0.000700
vn 0.821500 -0.570200 -0.000700
vn 0.570200 0.821500 -0.001000
vn -0.570200 -0.821500 0.001000
vn -0.001200 -0.000400 -1.000000
vn 0.001200 0.000400 1.000000
usemtl woodMaterial
s 1
f 25/13/19 27/14/19 28/15/19 26/16/19
f 29/13/20 31/14/20 32/15/20 30/16/20
f 29/13/21 30/14/21 25/15/21 26/16/21
f 32/13/22 31/14/22 28/15/22 27/16/22
f 30/13/23 32/14/23 27/15/23 25/16/23
f 26/13/24 28/14/24 31/15/24 29/16/24
o Box8
v -0.245552 0.741784 0.345267
v -0.245552 0.741784 0.288767
v 0.629596 -0.672318 0.345267
v 0.629596 -0.672318 0.288767
v -0.293596 0.712051 0.288767
v -0.293596 0.712051 0.345267
v 0.581552 -0.702051 0.288767
v 0.581552 -0.702051 0.345267
vt 0.000000 1.000000
vt 0.000000 0.000000
vt 1.000000 0.000000
vt 1.000000 1.000000
vn 0.850300 0.526200 0.000000
vn -0.850300 -0.526200 0.000000
vn -0.526200 0.850300 0.000000
vn 0.526200 -0.850300 0.000000
vn 0.000000 0.000000 1.000000
vn 0.000000 0.000000 -1.000000
usemtl woodMaterial
s 1
f 33/17/25 35/18/25 36/19/25 34/20/25
f 37/17/26 39/18/26 40/19/26 38/20/26
f 37/17/27 38/18/27 33/19/27 34/20/27
f 40/17/28 39/18/28 36/19/28 35/20/28
f 38/17/29 40/18/29 35/19/29 33/20/29
f 34/17/30 36/18/30 39/19/30 37/20/30
o Box16
v 0.476000 0.224550 1.316800
v 0.476000 0.224550 0.686000
v 0.476000 0.191250 1.316800
v 0.476000 0.191250 0.686000
v -0.154800 0.224550 0.686000
v -0.154800 0.224550 1.316800
v -0.154800 0.191250 0.686000
v -0.154800 0.191250 1.316800
vt 0.000000 1.000000
vt 0.000000 0.000000
vt 1.000000 0.000000
vt 1.000000 1.000000
vn 1.000000 0.000000 0.000000
vn -1.000000 0.000000 0.000000
vn 0.000000 1.000000 0.000000
vn 0.000000 -1.000000 0.000000
vn 0.000000 0.000000 1.000000
vn 0.000000 0.000000 -1.000000
usemtl woodMaterial
s 1
f 41/21/31 43/22/31 44/23/31 42/24/31
f 45/21/32 47/22/32 48/23/32 46/24/32
f 45/21/33 46/22/33 41/23/33 42/24/33
f 48/21/34 47/22/34 44/23/34 43/24/34
f 46/21/35 48/22/35 43/23/35 41/24/35
f 42/21/36 44/22/36 47/23/36 45/24/36
o Box11
v -0.157907 0.467876 1.294800
v -0.157907 0.467876 0.664000
v -0.189738 0.458095 1.294800
v -0.189738 0.458095 0.664000
v -0.266262 0.820504 0.664000
v -0.266262 0.820504 1.294800
v -0.298093 0.810723 0.664000
v -0.298093 0.810723 1.294800
vt 0.000000 1.000000
vt 0.000000 0.000000
vt 1.000000 0.000000
vt 1.000000 1.000000
vn 0.293700 -0.955900 0.000000
vn -0.293700 0.955900 0.000000
vn 0.955900 0.293700 0.000000
vn -0.955900 -0.293700 0.000000
vn -0.000000 0.000000 1.000000
vn -0.000000 0.000000 -1.000000
usemtl woodMaterial
s 1
f 49/25/37 51/26/37 52/27/37 50/28/37
f 53/25/38 55/26/38 56/27/38 54/28/38
f 53/25/39 54/26/39 49/27/39 50/28/39
f 56/25/40 55/26/40 52/27/40 51/28/40
f 54/25/41 56/26/41 51/27/41 49/28/41
f 50/25/42 52/26/42 55/27/42 53/28/42
o Box7
v -0.245552 0.741784 -0.293233
v -0.245552 0.741784 -0.349733
v 0.629596 -0.672318 -0.293233
v 0.629596 -0.672318 -0.349733
v -0.293596 0.712051 -0.349733
v -0.293596 0.712051 -0.293233
v 0.581552 -0.702051 -0.349733
v 0.581552 -0.702051 -0.293233
vt 0.000000 1.000000
vt 0.000000 0.000000
vt 1.000000 0.000000
vt 1.000000 1.000000
vn 0.850300 0.526200 0.000000
vn -0.850300 -0.526200 0.000000
vn -0.526200 0.850300 0.000000
vn 0.526200 -0.850300 0.000000
vn 0.000000 0.000000 1.000000
vn 0.000000 0.000000 -1.000000
usemtl woodMaterial
s 1
f 57/29/43 59/30/43 60/31/43 58/32/43
f 61/29/44 63/30/44 64/31/44 62/32/44
f 61/29/45 62/30/45 57/31/45 58/32/45
f 64/29/46 63/30/46 60/31/46 59/32/46
f 62/29/47 64/30/47 59/31/47 57/32/47
f 58/29/48 60/30/48 63/31/48 61/32/48
o Box17
v -0.157907 0.467876 -0.750700
v -0.157907 0.467876 -1.381500
v -0.189738 0.458095 -0.750700
v -0.189738 0.458095 -1.381500
v -0.266262 0.820504 -1.381500
v -0.266262 0.820504 -0.750700
v -0.298093 0.810723 -1.381500
v -0.298093 0.810723 -0.750700
vt 0.000000 1.000000
vt 0.000000 0.000000
vt 1.000000 0.000000
vt 1.000000 1.000000
vn 0.293700 -0.955900 0.000000
vn -0.293700 0.955900 0.000000
vn 0.955900 0.293700 0.000000
vn -0.955900 -0.293700 0.000000
vn -0.000000 0.000000 1.000000
vn -0.000000 0.000000 -1.000000
usemtl woodMaterial
s 1
f 65/33/49 67/34/49 68/35/49 66/36/49
f 69/33/50 71/34/50 72/35/50 70/36/50
f 69/33/51 70/34/51 65/35/51 66/36/51
f 72/33/52 71/34/52 68/35/52 67/36/52
f 70/33/53 72/34/53 67/35/53 65/36/53
f 66/33/54 68/34/54 71/35/54 69/36/54
o Box19
v -0.245552 0.741818 -0.713550
v -0.245552 0.741818 -0.770050
v 0.629596 -0.672285 -0.713550
v 0.629596 -0.672285 -0.770050
v -0.293596 0.712085 -0.770050
v -0.293596 0.712085 -0.713550
v 0.581552 -0.702018 -0.770050
v 0.581552 -0.702018 -0.713550
vt 0.000000 1.000000
vt 0.000000 0.000000
vt 1.000000 0.000000
vt 1.000000 1.000000
vn 0.850300 0.526200 0.000000
vn -0.850300 -0.526200 0.000000
vn -0.526200 0.850300 0.000000
vn 0.526200 -0.850300 0.000000
vn 0.000000 0.000000 1.000000
vn 0.000000 0.000000 -1.000000
usemtl woodMaterial
s 1
f 73/37/55 75/38/55 76/39/55 74/40/55
f 77/37/56 79/38/56 80/39/56 78/40/56
f 77/37/57 78/38/57 73/39/57 74/40/57
f 80/37/58 79/38/58 76/39/58 75/40/58
f 78/37/59 80/38/59 75/39/59 73/40/59
f 74/37/60 76/38/60 79/39/60 77/40/60
o Box9
v 0.316562 0.255757 0.287957
v 0.316628 0.255780 0.344457
v -0.631644 -1.110432 0.289617
v -0.631578 -1.110409 0.346117
v 0.363044 0.223565 0.344416
v 0.362978 0.223542 0.287916
v -0.585162 -1.142624 0.346076
v -0.585228 -1.142647 0.289576
vt 0.000000 1.000000
vt 0.000000 0.000000
vt 1.000000 0.000000
vt 1.000000 1.000000
vn -0.821500 0.570200 0.000700
vn 0.821500 -0.570200 -0.000700
vn 0.570200 0.821500 -0.001000
vn -0.570200 -0.821500 0.001000
vn -0.001200 -0.000400 -1.000000
vn 0.001200 0.000400 1.000000
usemtl woodMaterial
s 1
f 81/41/61 83/42/61 84/43/61 82/44/61
f 85/41/62 87/42/62 88/43/62 86/44/62
f 85/41/63 86/42/63 81/43/63 82/44/63
f 88/41/64 87/42/64 84/43/64 83/44/64
f 86/41/65 88/42/65 83/43/65 81/44/65
f 82/41/66 84/42/66 87/43/66 85/44/66
o Box5
v 0.476000 0.224517 0.330117
v 0.476000 0.224517 -0.300683
v 0.476000 0.191217 0.330117
v 0.476000 0.191217 -0.300683
v -0.154800 0.224517 -0.300683
v -0.154800 0.224517 0.330117
v -0.154800 0.191217 -0.300683
v -0.154800 0.191217 0.330117
vt 0.000000 1.000000
vt 0.000000 0.000000
vt 1.000000 0.000000
vt 1.000000 1.000000
vn 1.000000 0.000000 0.000000
vn -1.000000 0.000000 0.000000
vn 0.000000 1.000000 0.000000
vn 0.000000 -1.000000 0.000000
vn 0.000000 0.000000 1.000000
vn 0.000000 0.000000 -1.000000
usemtl woodMaterial
s 1
f 89/45/67 91/46/67 92/47/67 90/48/67
f 93/45/68 95/46/68 96/47/68 94/48/68
f 93/45/69 94/46/69 89/47/69 90/48/69
f 96/45/70 95/46/70 92/47/70 91/48/70
f 94/45/71 96/46/71 91/47/71 89/48/71
f 90/45/72 92/46/72 95/47/72 93/48/72
o Box6
v -0.157907 0.467843 0.308117
v -0.157907 0.467843 -0.322683
v -0.189738 0.458062 0.308117
v -0.189738 0.458062 -0.322683
v -0.266262 0.820471 -0.322683
v -0.266262 0.820471 0.308117
v -0.298093 0.810690 -0.322683
v -0.298093 0.810690 0.308117
vt 0.000000 1.000000
vt 0.000000 0.000000
vt 1.000000 0.000000
vt 1.000000 1.000000
vn 0.293700 -0.955900 0.000000
vn -0.293700 0.955900 0.000000
vn 0.955900 0.293700 0.000000
vn -0.955900 -0.293700 0.000000
vn 0.000000 0.000000 1.000000
vn -0.000000 0.000000 -1.000000
usemtl woodMaterial
s 1
f 97/49/73 99/50/73 100/51/73 98/52/73
f 101/49/74 103/50/74 104/51/74 102/52/74
f 101/49/75 102/50/75 97/51/75 98/52/75
f 104/49/76 103/50/76 100/51/76 99/52/76
f 102/49/77 104/50/77 99/51/77 97/52/77
f 98/49/78 100/50/78 103/51/78 101/52/78
o Box21
v 0.316562 0.255790 -1.407860
v 0.316628 0.255813 -1.351360
v -0.631644 -1.110398 -1.406199
v -0.631578 -1.110375 -1.349699
v 0.363044 0.223598 -1.351401
v 0.362978 0.223575 -1.407901
v -0.585162 -1.142590 -1.349740
v -0.585228 -1.142613 -1.406240
vt 0.000000 1.000000
vt 0.000000 0.000000
vt 1.000000 0.000000
vt 1.000000 1.000000
vn -0.821500 0.570200 0.000700
vn 0.821500 -0.570200 -0.000700
vn 0.570200 0.821500 -0.001000
vn -0.570200 -0.821500 0.001000
vn -0.001200 -0.000400 -1.000000
vn 0.001200 0.000400 1.000000
usemtl woodMaterial
s 1
f 105/53/79 107/54/79 108/55/79 106/56/79
f 109/53/80 111/54/80 112/55/80 110/56/80
f 109/53/81 110/54/81 105/55/81 106/56/81
f 112/53/82 111/54/82 108/55/82 107/56/82
f 110/53/83 112/54/83 107/55/83 105/56/83
f 106/53/84 108/54/84 111/55/84 109/56/84
o Box22
v 0.476000 0.224550 -0.728700
v 0.476000 0.224550 -1.359500
v 0.476000 0.191250 -0.728700
v 0.476000 0.191250 -1.359500
v -0.154800 0.224550 -1.359500
v -0.154800 0.224550 -0.728700
v -0.154800 0.191250 -1.359500
v -0.154800 0.191250 -0.728700
vt 0.000000 1.000000
vt 0.000000 0.000000
vt 1.000000 0.000000
vt 1.000000 1.000000
vn 1.000000 0.000000 0.000000
vn -1.000000 0.000000 0.000000
vn 0.000000 1.000000 0.000000
vn 0.000000 -1.000000 0.000000
vn 0.000000 0.000000 1.000000
vn 0.000000 0.000000 -1.000000
usemtl woodMaterial
s 1
f 113/57/85 115/58/85 116/59/85 114/60/85
f 117/57/86 119/58/86 120/59/86 118/60/86
f 117/57/87 118/58/87 113/59/87 114/60/87
f 120/57/88 119/58/88 116/59/88 115/60/88
f 118/57/89 120/58/89 115/59/89 113/60/89
f 114/57/90 116/58/90 119/59/90 117/60/90
o Box12
v -0.245552 0.741818 0.693450
v -0.245552 0.741818 0.636950
v 0.629596 -0.672285 0.693450
v 0.629596 -0.672285 0.636950
v -0.293596 0.712085 0.636950
v -0.293596 0.712085 0.693450
v 0.581552 -0.702018 0.636950
v 0.581552 -0.702018 0.693450
vt 0.000000 1.000000
vt 0.000000 0.000000
vt 1.000000 0.000000
vt 1.000000 1.000000
vn 0.850300 0.526200 0.000000
vn -0.850300 -0.526200 0.000000
vn -0.526200 0.850300 0.000000
vn 0.526200 -0.850300 0.000000
vn -0.000000 0.000000 1.000000
vn 0.000000 0.000000 -1.000000
usemtl woodMaterial
s 1
f 121/61/91 123/62/91 124/63/91 122/64/91
f 125/61/92 127/62/92 128/63/92 126/64/92
f 125/61/93 126/62/93 121/63/93 122/64/93
f 128/61/94 127/62/94 124/63/94 123/64/94
f 126/61/95 128/62/95 123/63/95 121/64/95
f 122/61/96 124/62/96 127/63/96 125/64/96
o Box20
v 0.316562 0.255790 -0.770860
v 0.316628 0.255813 -0.714360
v -0.631644 -1.110398 -0.769199
v -0.631578 -1.110375 -0.712699
v 0.363044 0.223598 -0.714401
v 0.362978 0.223575 -0.770901
v -0.585162 -1.142590 -0.712740
v -0.585228 -1.142613 -0.769240
vt 0.000000 1.000000
vt 0.000000 0.000000
vt 1.000000 0.000000
vt 1.000000 1.000000
vn -0.821500 0.570200 0.000700
vn 0.821500 -0.570200 -0.000700
vn 0.570200 0.821500 -0.001000
vn -0.570200 -0.821500 0.001000
vn -0.001200 -0.000400 -1.000000
vn 0.001200 0.000400 1.000000
usemtl woodMaterial
s 1
f 129/65/97 131/66/97 132/67/97 130/68/97
f 133/65/98 135/66/98 136/67/98 134/68/98
f 133/65/99 134/66/99 129/67/99 130/68/99
f 136/65/100 135/66/100 132/67/100 131/68/100
f 134/65/101 136/66/101 131/67/101 129/68/101
f 130/65/102 132/66/102 135/67/102 133/68/102
o Box14
v 0.316562 0.255790 1.274640
v 0.316628 0.255813 1.331140
v -0.631644 -1.110398 1.276301
v -0.631578 -1.110375 1.332801
v 0.363044 0.223598 1.331099
v 0.362978 0.223575 1.274599
v -0.585162 -1.142590 1.332760
v -0.585228 -1.142613 1.276260
vt 0.000000 1.000000
vt 0.000000 0.000000
vt 1.000000 0.000000
vt 1.000000 1.000000
vn -0.821500 0.570200 0.000700
vn 0.821500 -0.570200 -0.000700
vn 0.570200 0.821500 -0.001000
vn -0.570200 -0.821500 0.001000
vn -0.001200 -0.000400 -1.000000
vn 0.001200 0.000400 1.000000
usemtl woodMaterial
s 1
f 137/69/103 139/70/103 140/71/103 138/72/103
f 141/69/104 143/70/104 144/71/104 142/72/104
f 141/69/105 142/70/105 137/71/105 138/72/105
f 144/69/106 143/70/106 140/71/106 139/72/106
f 142/69/107 144/70/107 139/71/107 137/72/107
f 138/69/108 140/70/108 143/71/108 141/72/108
